<svg width="29" height="44" viewBox="0 0 29 44" fill="none" xmlns="http://www.w3.org/2000/svg">
<g id="Icon">
<path id="Vector" d="M29 0H0V44H29V0Z" fill="white"/>
<g id="Icon_2">
<path id="Vector_2" d="M22.3001 22.4337C21.9604 23.9337 21.2434 25.2029 20.2244 26.2413H25.7722C26.8289 20.3568 23.0172 14.0876 16.8278 12.7415C18.0732 13.0876 23.5455 15.703 22.3001 22.4337Z" fill="#0047BA"/>
<path id="Vector_3" d="M3.05261 3.08765V26.2413H5.46796C6.93982 26.2413 7.27947 26.2797 8.07201 26.1259C11.5441 25.6259 14.7142 22.7413 15.0539 20.2029C15.5822 17.2029 13.9594 14.5491 10.8648 13.8952C10.827 13.8952 10.7515 13.8568 10.6761 13.8568C10.5628 13.8568 9.05325 13.8568 7.92105 13.5491C7.92105 13.5491 7.24173 14.0875 7.50591 15.0875C7.50591 15.0875 5.95858 13.4337 6.93982 11.2414C6.93982 11.2414 7.43043 10.203 9.01551 9.12605L9.05325 9.08759C9.46839 8.54913 10.5251 7.62606 12.0347 6.93376C12.7895 6.58761 14.1104 6.08762 15.5822 5.93377C22.2999 5.27993 25.923 10.5491 25.923 10.5491V3.08765H3.05261Z" fill="#0047BA"/>
<path id="Vector_4" d="M19.6206 8.70304C16.4127 8.27997 13.6954 9.12612 11.5443 10.6261C11.5443 10.6261 12.1858 10.2415 13.1293 9.89534C13.2803 10.5107 13.8086 11.0492 14.488 11.203C15.4315 11.3953 16.3372 10.8569 16.5259 9.9338C16.5636 9.70303 16.5637 9.43381 16.4882 9.20304C22.6398 9.01073 25.9231 13.8184 25.9231 13.8184V11.7415C25.0174 10.8184 22.4888 9.01073 19.6206 8.70304Z" fill="#0047BA"/>
</g>
<g id="Label text">
<path id="Vector_5" d="M4.75553 36.0359H5.66375L7.36666 40.7934H6.34491L5.96649 39.6833H4.3771L3.99868 40.7934H3.05261L4.75553 36.0359ZM5.73943 38.8904L5.17179 37.1856L4.642 38.8904H5.73943Z" fill="#0047BA"/>
<path id="Vector_6" d="M7.93457 36.0359H9.63748C10.3187 36.0359 10.8863 36.2341 11.2647 36.6306C11.6431 37.027 11.8324 37.6217 11.8324 38.375C11.8324 38.7715 11.7945 39.1283 11.681 39.4058C11.5675 39.723 11.4161 39.9608 11.2269 40.1591C11.0377 40.3573 10.7728 40.5159 10.47 40.6348C10.1673 40.7538 9.86454 40.7934 9.48611 40.7934H7.93457V36.0359ZM9.48611 39.9212C9.71317 39.9212 9.94022 39.9212 10.1294 39.8419C10.3187 39.7626 10.4322 39.6437 10.5457 39.5247C10.6592 39.4058 10.7349 39.2076 10.7728 39.049C10.8106 38.8508 10.8484 38.6525 10.8484 38.4146C10.8484 38.1768 10.8106 37.9785 10.7728 37.7803C10.7349 37.5821 10.6592 37.4235 10.5457 37.3046C10.4322 37.1856 10.3187 37.0667 10.1673 36.9874C10.0159 36.9081 9.8267 36.8685 9.59964 36.8685H8.84279V39.9212H9.48611Z" fill="#0047BA"/>
<path id="Vector_7" d="M12.5891 36.0359H13.4216L15.2759 39.1679V36.0359H16.222V40.7934H15.3516L13.4973 37.701V40.7934H12.5891V36.0359Z" fill="#0047BA"/>
<path id="Vector_8" d="M19.1738 40.9124C18.8332 40.9124 18.5305 40.8727 18.2656 40.7538C18.0007 40.6349 17.7736 40.4763 17.5844 40.2384C17.3952 40.0402 17.2438 39.7626 17.1682 39.4455C17.0546 39.1283 17.0168 38.8111 17.0168 38.4147C17.0168 38.0182 17.0546 37.7011 17.1682 37.3839C17.2817 37.0667 17.3952 36.8288 17.5844 36.591C17.7736 36.3927 18.0007 36.1945 18.2656 36.0756C18.5305 35.9566 18.8332 35.917 19.1738 35.917C19.5144 35.917 19.8171 35.9566 20.082 36.0756C20.3469 36.1945 20.574 36.3531 20.7632 36.591C20.9524 36.7892 21.1038 37.0667 21.1795 37.3839C21.293 37.7011 21.3308 38.0182 21.3308 38.4147C21.3308 38.8111 21.293 39.1283 21.1795 39.4455C21.0659 39.7626 20.9524 40.0005 20.7632 40.2384C20.574 40.4366 20.3469 40.6349 20.082 40.7538C19.8171 40.8727 19.5144 40.9124 19.1738 40.9124ZM19.1738 40.0798C19.5901 40.0798 19.855 39.9212 20.082 39.6437C20.2712 39.3662 20.3848 38.9697 20.3848 38.4147C20.3848 37.8993 20.2712 37.5028 20.082 37.1857C19.855 36.9081 19.5522 36.7892 19.1738 36.7892C18.7575 36.7892 18.4926 36.9478 18.2656 37.2253C18.0764 37.5028 17.9628 37.8993 17.9628 38.4543C17.9628 38.9697 18.0764 39.4058 18.2656 39.6834C18.4548 39.9212 18.7575 40.0798 19.1738 40.0798Z" fill="#0047BA"/>
<path id="Vector_9" d="M25.9475 39.2075C25.9096 39.4453 25.8718 39.6436 25.7961 39.8814C25.7204 40.0797 25.569 40.2779 25.4177 40.4365C25.2663 40.5951 25.0771 40.714 24.85 40.7933C24.623 40.8726 24.3581 40.9122 24.0553 40.9122C23.7148 40.9122 23.412 40.8329 23.1471 40.714C22.8822 40.5951 22.6552 40.4365 22.5038 40.1986C22.3146 40.0004 22.2011 39.7229 22.1254 39.4057C22.0497 39.0885 21.974 38.7714 21.974 38.3749C21.974 37.9784 22.0118 37.6613 22.1254 37.3441C22.2389 37.0269 22.3524 36.7891 22.5416 36.5512C22.7308 36.353 22.9579 36.1547 23.185 36.0358C23.4499 35.9168 23.7526 35.8772 24.0553 35.8772C24.3581 35.8772 24.5851 35.9168 24.8122 35.9961C25.0392 36.0754 25.1906 36.1944 25.342 36.3133C25.4934 36.4719 25.6069 36.6305 25.6826 36.8287C25.7583 37.0269 25.8339 37.2648 25.8718 37.5027L24.9257 37.6216C24.9203 37.5819 24.9118 37.5438 24.9008 37.5072C24.7855 37.1218 24.4198 36.7891 24.0175 36.7891C23.6391 36.7891 23.3742 36.9476 23.185 37.2252C22.9957 37.5027 22.9201 37.8991 22.9201 38.4542C22.9201 38.9696 23.0336 39.4057 23.2228 39.6832C23.412 39.9607 23.6769 40.1193 24.0175 40.1193C24.3202 40.1193 24.5094 40.04 24.6608 39.8814C24.8122 39.7229 24.8879 39.485 24.9257 39.2075H25.9475Z" fill="#0047BA"/>
<path id="Vector_10" d="M7.9343 33.0229V28.7808H8.88036V33.8554H4.9069C4.26357 33.8554 3.80946 33.6969 3.50672 33.4193C3.20398 33.1418 3.05261 32.7057 3.05261 32.111C3.05261 32.0685 3.05398 32.0266 3.05661 31.9854C3.08932 31.4735 3.35512 30.9614 3.80946 30.7234C4.07436 30.5648 4.33926 30.4855 4.67984 30.4855L4.79337 31.3181C4.49063 31.3577 4.26357 31.437 4.15005 31.556C4.03652 31.6749 3.96083 31.8731 3.96083 32.1507C3.96083 32.4678 4.03652 32.6661 4.18789 32.8246C4.33926 32.9436 4.56631 33.0229 4.86905 33.0229H7.9343ZM7.02608 30.8423V31.1595H5.81512V30.8423H5.96649V30.6441C5.96649 30.4855 6.00433 30.327 6.11786 30.2477C6.19354 30.1684 6.34491 30.1287 6.49628 30.1287C6.64765 30.1287 6.79902 30.1684 6.87471 30.2477C6.95039 30.327 6.98824 30.4459 7.02608 30.6045L6.72334 30.6441C6.72334 30.6434 6.72334 30.6426 6.72333 30.6419C6.7224 30.5379 6.63809 30.4459 6.53413 30.4459C6.38276 30.4459 6.30707 30.5252 6.30707 30.6838V30.8423H7.02608Z" fill="#0047BA"/>
<path id="Vector_11" d="M17.8872 30.3269V32.9832H12.7028V31.9524C12.7028 31.3973 12.5892 31.0009 12.3243 30.7234C12.0594 30.4458 11.681 30.3269 11.1891 30.3269C10.6971 30.3269 10.3187 30.4855 10.0538 30.763C9.78888 31.0405 9.63751 31.437 9.63751 31.9524C9.63751 32.5471 9.82672 33.0625 10.1673 33.3796C10.5079 33.6968 11.0377 33.8554 11.681 33.8554H11.7945V33.9743C11.7945 34.3708 11.7567 34.569 11.6432 34.688L12.0973 35.4412C12.26 35.356 12.3975 35.2184 12.4793 35.0539C12.6342 34.7421 12.7028 34.2868 12.7028 33.8554H18.8332V30.3269H17.8872ZM11.7945 33.0228H11.4918C10.8485 33.0228 10.5457 32.6264 10.5457 31.992C10.5457 31.7145 10.5836 31.5163 10.6971 31.3973C10.8106 31.2388 10.962 31.1991 11.1891 31.1991C11.2048 31.1991 11.2201 31.1995 11.2351 31.2004C11.4629 31.2127 11.6875 31.3384 11.7567 31.5559C11.7945 31.7145 11.8324 31.992 11.8324 32.2696V33.0228H11.7945Z" fill="#0047BA"/>
<path id="Vector_12" d="M18.7951 28.8997H17.8869V29.8512H18.7951V28.8997Z" fill="#0047BA"/>
<path id="Vector_13" d="M23.1471 33.023V32.5076C23.1471 32.0715 23.0714 31.7543 22.9201 31.5561C22.7687 31.3578 22.5416 31.2389 22.201 31.2389C21.974 31.2389 21.7469 31.2786 21.5199 31.3578L21.2928 30.5253C21.5956 30.4063 21.9361 30.3667 22.2767 30.3667C22.8444 30.3667 23.2985 30.5253 23.6012 30.8821C23.904 31.2389 24.0553 31.7543 24.0553 32.4283V33.8952H19.5142V33.023H23.1471Z" fill="#0047BA"/>
<path id="Vector_14" d="M25.9473 28.5428V28.86H24.7363V28.5428H24.8877V28.3446C24.8877 28.3378 24.8878 28.3309 24.8879 28.3241C24.8938 28.0447 25.138 27.7896 25.4175 27.7896C25.5689 27.7896 25.7202 27.8292 25.7959 27.9085C25.8716 27.9878 25.9094 28.1067 25.9473 28.2653L25.6446 28.3049C25.6446 28.3042 25.6445 28.3035 25.6445 28.3027C25.6436 28.1988 25.5593 28.1067 25.4553 28.1067C25.304 28.1067 25.2283 28.186 25.2283 28.3446V28.5428H25.9473Z" fill="#0047BA"/>
<path id="Vector_15" d="M25.7582 29.2566H24.85V33.8555H25.7582V29.2566Z" fill="#0047BA"/>
</g>
</g>
</svg>
