<svg width="50" height="50" viewBox="0 0 50 50" fill="none" xmlns="http://www.w3.org/2000/svg">
<g clip-path="url(#clip0_195_372)">
<path d="M38.9618 0H11.0393C4.94195 0 0 4.94195 0 11.0393V38.9618C0 45.058 4.94195 50.0011 11.0393 50.0011H23.055V33.1736H16.2415V25.4315H23.055V19.0316C23.055 13.5014 27.5377 9.01873 33.0679 9.01873L38.9518 9.22557V16.4517L34.9807 16.3482C33.1258 16.3482 31.6223 17.8517 31.6223 19.7066V25.4326H38.9518L37.713 33.1747H31.6223V50.0022H38.9607C45.0569 50.0022 50 45.0603 50 38.9629V11.0393C50 4.94306 45.0581 0 38.9607 0H38.9618Z" fill="white"/>
</g>
<defs>
<clipPath id="clip0_195_372">
<rect width="50" height="50" fill="white"/>
</clipPath>
</defs>
</svg>
