<svg width="50" height="50" viewBox="0 0 50 50" fill="none" xmlns="http://www.w3.org/2000/svg">
<g clip-path="url(#clip0_195_375)">
<path d="M31.2796 26.4802C32.0983 23.0117 29.9501 19.5363 26.4816 18.7177C23.0131 17.899 19.5377 20.0471 18.7191 23.5156C17.9005 26.9841 20.0486 30.4595 23.5171 31.2782C26.9856 32.0968 30.461 29.9487 31.2796 26.4802Z" fill="white"/>
<path d="M33.054 9.75195H16.9451C12.9779 9.75195 9.75098 12.9789 9.75098 16.9461V33.055C9.75098 37.0221 12.9779 40.2491 16.9451 40.2491H33.054C37.0211 40.2491 40.2481 37.0221 40.2481 33.055V16.9461C40.2481 12.9789 37.0211 9.75195 33.054 9.75195ZM24.999 34.6628C19.6711 34.6628 15.3361 30.3278 15.3361 25C15.3361 19.6721 19.6711 15.3371 24.999 15.3371C30.3269 15.3371 34.6618 19.6721 34.6618 25C34.6618 30.3278 30.3269 34.6628 24.999 34.6628ZM34.8514 17.1097C33.608 17.1097 32.5993 16.101 32.5993 14.8576C32.5993 13.6142 33.608 12.6055 34.8514 12.6055C36.0948 12.6055 37.1035 13.6142 37.1035 14.8576C37.1035 16.101 36.0948 17.1097 34.8514 17.1097Z" fill="white"/>
<path d="M38.9606 0H11.0394C4.942 0 0 4.942 0 11.0394V38.9617C0 45.058 4.942 50.0011 11.0394 50.0011H38.9617C45.058 50.0011 50.0011 45.0591 50.0011 38.9617V11.0394C50.0011 4.94313 45.0591 0 38.9617 0H38.9606ZM44.0888 33.0539C44.0888 39.1389 39.1389 44.0888 33.0539 44.0888H16.945C10.86 44.0888 5.9101 39.1389 5.9101 33.0539V16.945C5.9101 10.86 10.86 5.9101 16.945 5.9101H33.0539C39.1389 5.9101 44.0888 10.86 44.0888 16.945V33.0539Z" fill="white"/>
</g>
<defs>
<clipPath id="clip0_195_375">
<rect width="50" height="50" fill="white"/>
</clipPath>
</defs>
</svg>
