<svg width="50" height="50" viewBox="0 0 50 50" fill="none" xmlns="http://www.w3.org/2000/svg">
<g clip-path="url(#clip0_195_382)">
<path d="M39.0688 0H10.9312C4.89402 0 0 4.89402 0 10.9312V39.0688C0 45.106 4.89402 50 10.9312 50H39.0688C45.106 50 50 45.106 50 39.0688V10.9312C50 4.89402 45.106 0 39.0688 0ZM14.7644 42.4527H7.26375V18.6787H14.7644V42.4527ZM11.0713 15.3248C8.68714 15.3248 6.75555 13.3921 6.75555 11.0091C6.75555 8.62598 8.68825 6.69328 11.0713 6.69328C13.4544 6.69328 15.3871 8.62598 15.3871 11.0091C15.3871 13.3921 13.4544 15.3248 11.0713 15.3248ZM42.595 42.4527H35.1889V28.9616C35.1889 28.9616 35.1889 24.4801 31.3213 24.4801C27.4537 24.4801 26.9344 28.301 26.9344 29.9991V42.4516H19.4338V18.6776H26.6508V21.9325C26.6508 21.9325 28.3022 17.9703 34.1036 17.9703C39.905 17.9703 42.5939 21.65 42.5939 28.3478V42.4516L42.595 42.4527Z" fill="white"/>
</g>
<defs>
<clipPath id="clip0_195_382">
<rect width="50" height="50" fill="white"/>
</clipPath>
</defs>
</svg>
