<svg width="250" height="49" viewBox="0 0 250 49" fill="none" xmlns="http://www.w3.org/2000/svg">
<rect x="0.5" y="0.5" width="249" height="48" rx="6.5" stroke="white"/>
<path d="M68.5 13C64.3581 13 61 16.3581 61 20.5C61 22.1309 61.5347 23.6275 62.4234 24.8531C62.4394 24.8825 62.4419 24.9153 62.46 24.9434L67.46 32.4434C67.6919 32.7913 68.0825 33 68.5 33C68.9175 33 69.3081 32.7913 69.54 32.4434L74.54 24.9434C74.5584 24.9153 74.5606 24.8825 74.5766 24.8531C75.4653 23.6275 76 22.1309 76 20.5C76 16.3581 72.6419 13 68.5 13ZM68.5 23C67.1194 23 66 21.8806 66 20.5C66 19.1194 67.1194 18 68.5 18C69.8806 18 71 19.1194 71 20.5C71 21.8806 69.8806 23 68.5 23Z" fill="white"/>
<path d="M174.199 28.9999V18.5039H175.575L179.367 25.0959L180.503 27.2719H180.567C180.535 26.7386 180.498 26.1892 180.455 25.6239C180.423 25.0479 180.407 24.4826 180.407 23.9279V18.5039H181.671V28.9999H180.295L176.487 22.3919L175.351 20.2319H175.287C175.33 20.7652 175.367 21.3092 175.399 21.8639C175.442 22.4079 175.463 22.9572 175.463 23.5119V28.9999H174.199Z" fill="white"/>
<path d="M164.246 29.192C162.923 29.192 161.846 28.7013 161.014 27.72C160.182 26.728 159.766 25.3893 159.766 23.704C159.766 22.0293 160.182 20.712 161.014 19.752C161.846 18.792 162.923 18.312 164.246 18.312C165.569 18.312 166.646 18.792 167.478 19.752C168.321 20.712 168.742 22.0293 168.742 23.704C168.742 25.3893 168.321 26.728 167.478 27.72C166.646 28.7013 165.569 29.192 164.246 29.192ZM164.246 28.024C165.185 28.024 165.937 27.6347 166.502 26.856C167.067 26.0667 167.35 25.016 167.35 23.704C167.35 22.4027 167.067 21.3733 166.502 20.616C165.937 19.8587 165.185 19.48 164.246 19.48C163.307 19.48 162.555 19.8587 161.99 20.616C161.425 21.3733 161.142 22.4027 161.142 23.704C161.142 25.016 161.425 26.0667 161.99 26.856C162.555 27.6347 163.307 28.024 164.246 28.024Z" fill="white"/>
<path d="M152.971 28.9999V18.5039H154.299V28.9999H152.971Z" fill="white"/>
<path d="M143.369 28.9999V19.6239H140.201V18.5039H147.881V19.6239H144.713V28.9999H143.369Z" fill="white"/>
<path d="M131.973 23.1279L131.477 24.7279H134.629L134.133 23.1279C133.941 22.5412 133.76 21.9599 133.589 21.3839C133.418 20.7972 133.248 20.1999 133.077 19.5919H133.013C132.853 20.1999 132.688 20.7972 132.517 21.3839C132.346 21.9599 132.165 22.5412 131.973 23.1279ZM135.957 28.9999L134.965 25.7999H131.141L130.133 28.9999H128.773L132.325 18.5039H133.829L137.381 28.9999H135.957Z" fill="white"/>
<path d="M121.792 29.192C120.48 29.192 119.387 28.712 118.512 27.752C117.648 26.792 117.216 25.4587 117.216 23.752C117.216 22.0667 117.659 20.7387 118.544 19.768C119.43 18.7973 120.539 18.312 121.872 18.312C122.512 18.312 123.072 18.4453 123.552 18.712C124.043 18.968 124.443 19.2667 124.752 19.608L124.032 20.472C123.755 20.1733 123.44 19.9333 123.088 19.752C122.736 19.5707 122.336 19.48 121.888 19.48C120.896 19.48 120.096 19.864 119.488 20.632C118.891 21.3893 118.592 22.4187 118.592 23.72C118.592 25.0427 118.886 26.0933 119.472 26.872C120.059 27.64 120.848 28.024 121.84 28.024C122.342 28.024 122.79 27.9227 123.184 27.72C123.579 27.5067 123.942 27.2133 124.272 26.84L125.008 27.672C124.592 28.152 124.123 28.5253 123.6 28.792C123.078 29.0587 122.475 29.192 121.792 29.192Z" fill="white"/>
<path d="M107.871 29.192C106.548 29.192 105.471 28.7013 104.639 27.72C103.807 26.728 103.391 25.3893 103.391 23.704C103.391 22.0293 103.807 20.712 104.639 19.752C105.471 18.792 106.548 18.312 107.871 18.312C109.194 18.312 110.271 18.792 111.103 19.752C111.946 20.712 112.367 22.0293 112.367 23.704C112.367 25.3893 111.946 26.728 111.103 27.72C110.271 28.7013 109.194 29.192 107.871 29.192ZM107.871 28.024C108.81 28.024 109.562 27.6347 110.127 26.856C110.692 26.0667 110.975 25.016 110.975 23.704C110.975 22.4027 110.692 21.3733 110.127 20.616C109.562 19.8587 108.81 19.48 107.871 19.48C106.932 19.48 106.18 19.8587 105.615 20.616C105.05 21.3733 104.767 22.4027 104.767 23.704C104.767 25.016 105.05 26.0667 105.615 26.856C106.18 27.6347 106.932 28.024 107.871 28.024Z" fill="white"/>
<path d="M93.4399 28.9999V18.5039H94.7679V27.8639H99.3599V28.9999H93.4399Z" fill="white"/>
</svg>
