<?xml version="1.0" encoding="UTF-8"?><svg xmlns="http://www.w3.org/2000/svg" xmlns:xlink="http://www.w3.org/1999/xlink" viewBox="0 0 324.11 316.87"><defs><style>.f{fill:url(#e);}.g{fill:url(#d);fill-rule:evenodd;}</style><linearGradient id="d" x1="256.85" y1="111.77" x2="56.35" y2="312.26" gradientTransform="matrix(1, 0, 0, 1, 0, 0)" gradientUnits="userSpaceOnUse"><stop offset=".16" stop-color="#00aace"/><stop offset=".49" stop-color="#6c4d9f"/><stop offset=".78" stop-color="#2d2e75"/></linearGradient><linearGradient id="e" x1="307.29" y1="13.2" x2="16.82" y2="303.67" xlink:href="#d"/></defs><g id="a"/><g id="b"><g id="c"><path class="g" d="M184.17,185.91c0,19.1,15.63,34.73,34.73,34.73h0c19.1,0,34.73-15.63,34.73-34.73,0-9.44,.05-18.93,.05-28.43,0-13.01,10.65-23.66,23.66-23.66h0c13.01,0,23.66,10.65,23.66,23.66v26.17c0,45.18-36.94,82.1-82.1,82.1h0c-23.43,0-44.64-9.94-59.64-25.82-14.64,15.87-35.61,25.83-58.9,25.83-44.22,0-80.09-35.86-80.09-80.09S56.15,105.57,100.38,105.57c13.12,0,25.5,3.16,36.43,8.75v-41.13c0-13.01,10.65-23.66,23.66-23.66h0c13.01,0,23.66,10.65,23.66,23.66l.05,112.71h0Zm-83.8-35.22c19.31,0,34.98,15.66,34.98,34.97s-15.66,34.98-34.98,34.98-34.97-15.66-34.97-34.98,15.66-34.97,34.97-34.97h0Zm190.15,104.03h1.01c1.43,0,2.32-.06,2.67-.16,.34-.11,.62-.3,.82-.58,.21-.28,.3-.59,.3-.94s-.1-.65-.29-.91c-.2-.27-.47-.46-.84-.58-.36-.11-1.25-.17-2.66-.17h-1.01v3.34h0Zm-2.49,6.95v-12.23h2.49c2.33,0,3.63,.01,3.91,.03,.82,.07,1.46,.23,1.92,.49,.46,.26,.84,.65,1.14,1.17,.31,.53,.46,1.11,.46,1.76,0,.88-.29,1.63-.87,2.26-.58,.63-1.39,1.02-2.43,1.17,.37,.14,.66,.29,.86,.46,.2,.17,.48,.48,.83,.94,.09,.12,.39,.62,.9,1.49l1.44,2.47h-3.07l-1.03-1.98c-.69-1.34-1.26-2.18-1.72-2.52-.45-.34-1.02-.52-1.72-.52h-.64v5.02h-2.49Zm4.26-17.4c1.98,0,3.87,.49,5.69,1.49,1.82,.99,3.25,2.4,4.28,4.25,1.04,1.85,1.56,3.78,1.56,5.79s-.51,3.93-1.53,5.74c-1.02,1.82-2.44,3.24-4.26,4.26-1.82,1.02-3.74,1.53-5.74,1.53s-3.92-.51-5.74-1.53c-1.82-1.02-3.24-2.44-4.26-4.26-1.02-1.82-1.53-3.74-1.53-5.74s.52-3.94,1.56-5.79c1.04-1.84,2.47-3.26,4.28-4.25,1.82-.99,3.71-1.49,5.69-1.49h0Zm.02,2.26c-1.59,0-3.11,.39-4.56,1.19-1.45,.79-2.6,1.93-3.44,3.42-.84,1.48-1.26,3.04-1.26,4.66s.41,3.16,1.23,4.62c.82,1.46,1.96,2.61,3.42,3.43,1.46,.82,3,1.23,4.61,1.23s3.15-.41,4.61-1.23c1.46-.82,2.6-1.97,3.42-3.43,.82-1.46,1.23-3.01,1.23-4.62s-.42-3.18-1.25-4.66c-.84-1.48-1.99-2.62-3.45-3.42-1.46-.79-2.98-1.19-4.57-1.19h0Z"/><path class="f" d="M272.92,316.87H51.19c-28.23,0-51.19-22.96-51.19-51.19V51.19C0,22.96,22.96,0,51.19,0h221.73c28.23,0,51.19,22.96,51.19,51.19v214.49c0,28.23-22.96,51.19-51.19,51.19ZM51.19,6.3C26.44,6.3,6.3,26.44,6.3,51.19v214.49c0,24.75,20.14,44.89,44.89,44.89h221.73c24.75,0,44.89-20.14,44.89-44.89V51.19c0-24.75-20.14-44.89-44.89-44.89H51.19Z"/></g></g></svg>