<?xml version="1.0" encoding="UTF-8"?>
<svg id="Layer_2" data-name="Layer 2" xmlns="http://www.w3.org/2000/svg" viewBox="0 0 154.31 48.07">
  <defs>
    <style>
      .cls-1 {
        fill: #fff;
      }
    </style>
  </defs>
  <g id="_Слой_1" data-name="Слой 1">
    <g id="Group_28" data-name="Group 28">
      <path id="Path_21" data-name="Path 21" class="cls-1" d="m45.77,3.57c-9.99-.02-19.65,3.54-27.24,10.04-1.23-1.16-3.1-1.27-4.46-.26-.04-.04-.07-.07-.11-.11-.3-.3-.54-.54-.73-.72.23-.53.13-1.27-.7-2.09-.4-.47-.96-.76-1.57-.8-.18,0-.36.04-.52.11-.19-.19-.43-.44-.73-.74-.3-.3-.54-.53-.73-.72.23-.53.13-1.27-.7-2.09-.4-.46-.97-.75-1.58-.8-.18,0-.35.04-.52.1-.19-.19-.43-.43-.73-.74-.31-.3-.54-.54-.73-.72.23-.52.13-1.26-.7-2.09-.4-.46-.96-.75-1.57-.8-.18,0-.35.04-.52.11-.19-.19-.42-.43-.73-.74-.14-.14-.37-.37-.49-.48H0v.72c.15.14.3.3.49.48.31.31.55.55.75.74-.07.16-.11.34-.11.52.19,1.22,1.15,2.18,2.37,2.37.18,0,.35-.04.52-.11.19.2.43.43.73.74s.54.55.74.73c-.07.17-.1.34-.1.52.19,1.22,1.15,2.18,2.37,2.38.18,0,.36-.04.52-.1.18.2.42.43.72.73s.54.55.74.73c-.07.16-.11.34-.11.52.05.61.33,1.17.8,1.57.4.46.97.75,1.58.8.18,0,.35-.04.52-.11.18.19.42.43.73.73.04.04.07.07.1.1-1.01,1.36-.89,3.25.28,4.48-6.37,7.55-9.86,17.12-9.85,27h.06c.53-9.72,4.24-19,10.57-26.39.91.52,2,.61,2.98.24,3.2,3.28,16.25,16.65,16.72,17.12.54.53-.25,1.38-.46,1.6-1.33,1.33-3.36,2.03-5.53,2.14-1.56.08-3.11-.13-4.59-.61-1.23-.4-2.37-1.04-3.35-1.89l.74-.97c-1.7-1.18-3.54-2.13-5.49-2.83.34,2.12,1.17,4.14,2.43,5.89l.9-.69c1.14,1.13,2.44,2.1,3.85,2.87,1.75.94,3.71,1.44,5.71,1.45.96,0,15.09,0,15.09,0v-15.21c0-1.95-.5-3.88-1.45-5.58-.78-1.4-1.75-2.69-2.89-3.82l.72-.94s-2.06-1.57-5.9-2.41c.68,1.96,1.64,3.8,2.84,5.49l.93-.71c.85.98,1.49,2.12,1.88,3.36.47,1.42.68,2.92.62,4.42-.08,2.24-.78,4.35-2.12,5.69-.15.27-1.1.98-1.61.47-.44-.44-13.72-13.41-17.08-16.68.44-1.02.36-2.18-.19-3.13,7.43-6.44,16.8-10.23,26.62-10.76v-.05Zm-42.13.06c-.15.15-.22.25-.16.41-.77-.19-1.37-.8-1.57-1.57.16.05.26-.02.4-.16s.22-.24.16-.4c.39.06.75.27,1.01.57.29.26.49.61.57,1-.16-.06-.26,0-.41.16m4.25,4.25c-.15.15-.22.25-.16.42-.77-.2-1.37-.8-1.57-1.58.16.05.26-.02.4-.17s.22-.24.16-.4c.39.06.75.27,1.01.57.3.26.5.61.57,1-.16-.06-.26,0-.42.16m4.26,4.25c-.15.15-.22.25-.16.41-.77-.19-1.38-.8-1.57-1.57.15.05.26-.02.4-.16s.22-.24.16-.4c.39.06.75.27,1.01.57.3.26.5.62.57,1-.17-.06-.27,0-.41.16M0,0h48v48H0V0Z"/>
      <path id="Path_22" data-name="Path 22" class="cls-1" d="m153.77,44.48c-.37-.32-.84-.51-1.33-.53l-.82-.12c-.24-.02-.46-.12-.64-.28-.13-.13-.21-.31-.2-.49,0-.48.35-.88,1.07-.88.52-.04,1.03.13,1.42.48l.86-.85c-.6-.57-1.42-.87-2.24-.81-1.5,0-2.42.87-2.42,2.11-.03.51.15,1,.5,1.37.37.33.84.53,1.34.57l.85.11c.23.01.44.1.61.24.15.16.23.37.22.59,0,.55-.43.86-1.23.86-.61.04-1.22-.17-1.68-.58l-.88.88c.68.66,1.6.99,2.54.91,1.45,0,2.57-.76,2.57-2.11.03-.54-.16-1.08-.54-1.47"/>
      <path id="Path_23" data-name="Path 23" class="cls-1" d="m86.14,43.89h-2.35v-2.84h-1.36v6.95h1.36v-2.91h2.35v2.91h1.35v-6.95h-1.35v2.84Z"/>
      <path id="Path_24" data-name="Path 24" class="cls-1" d="m80.85,41.72c-.5-.46-1.16-.69-1.83-.66h-2.51v6.95h2.51c.68.03,1.34-.21,1.83-.67.78-.78.7-1.79.7-2.84s.08-2-.7-2.78m-.94,4.64c-.25.3-.63.46-1.02.43h-1.02v-4.53h1.02c.39-.02.77.14,1.02.44.25.31.29.75.29,1.8s-.04,1.55-.29,1.86"/>
      <path id="Path_25" data-name="Path 25" class="cls-1" d="m90.66,41.06l-2.52,6.95h1.41l.42-1.23h2.46l.41,1.23h1.41l-2.53-6.95h-1.07Zm-.31,4.58l.88-2.53.85,2.53h-1.73Z"/>
      <path id="Path_26" data-name="Path 26" class="cls-1" d="m72.48,45.57c.04.67-.47,1.24-1.14,1.27-.67.04-1.24-.47-1.27-1.14,0-.05,0-.09,0-.14v-4.52h-1.36v4.57c.07,1.41,1.27,2.5,2.68,2.43,1.32-.06,2.37-1.12,2.43-2.43v-4.57h-1.35v4.52Z"/>
      <path id="Path_27" data-name="Path 27" class="cls-1" d="m58.81,41.06l-2.53,6.95h1.41l.42-1.23h2.47l.41,1.23h1.42l-2.53-6.95h-1.07Zm-.31,4.58l.88-2.53.85,2.53h-1.73Z"/>
      <path id="Path_28" data-name="Path 28" class="cls-1" d="m67.06,44.44c.53-.28.87-.83.86-1.43,0-1.19-.79-1.95-2.15-1.95h-2.79v6.94h2.9c1.24,0,2.12-.7,2.12-2,.04-.67-.34-1.29-.95-1.56m-2.72-2.18h1.33c.44-.05.84.27.89.72.05.44-.27.84-.72.89-.06,0-.12,0-.18,0h-1.33v-1.61Zm1.41,4.53h-1.41v-1.7h1.41c.47-.03.88.32.91.79.03.47-.32.88-.79.91-.04,0-.08,0-.12,0"/>
      <path id="Path_29" data-name="Path 29" class="cls-1" d="m145.57,41.06h-1.36v6.95h4.51v-1.21h-3.15v-5.74Z"/>
      <path id="Path_30" data-name="Path 30" class="cls-1" d="m98.91,44.44c.53-.28.86-.83.86-1.43,0-1.19-.79-1.95-2.14-1.95h-2.8v6.94h2.91c1.24,0,2.13-.7,2.13-2,.04-.67-.34-1.29-.96-1.56m-2.72-2.18h1.33c.44-.05.84.27.89.72.05.44-.27.84-.72.89-.06,0-.12,0-.18,0h-1.33v-1.61Zm1.41,4.53h-1.41v-1.7h1.41c.47-.03.88.32.91.79.03.47-.32.88-.79.91-.04,0-.08,0-.12,0"/>
      <path id="Path_31" data-name="Path 31" class="cls-1" d="m135.44,45.31l-2.74-4.25h-1.22v6.94h1.36v-4.26l2.75,4.26h1.21v-6.94h-1.36v4.25Z"/>
      <path id="Path_32" data-name="Path 32" class="cls-1" d="m120.85,43.18c.02-1.16-.91-2.11-2.07-2.13-.06,0-.12,0-.18,0h-2.72v6.95h1.35v-2.77h.97l1.36,2.77h1.57l-1.55-2.99c.78-.26,1.29-1,1.26-1.82m-2.34.91h-1.28v-1.84h1.28c.51-.04.95.34.99.85.04.51-.34.95-.85.99-.05,0-.09,0-.14,0"/>
      <path id="Path_33" data-name="Path 33" class="cls-1" d="m104.76,42.26h1.81v5.74h1.36v-5.74h1.81v-1.2h-4.98v1.2Z"/>
      <path id="Path_34" data-name="Path 34" class="cls-1" d="m110.48,48h4.58v-1.21h-3.22v-1.69h2.74v-1.21h-2.74v-1.63h3.22v-1.2h-4.58v6.95Z"/>
      <path id="Path_35" data-name="Path 35" class="cls-1" d="m139.97,41.06l-2.52,6.95h1.41l.42-1.23h2.47l.41,1.23h1.42l-2.54-6.95h-1.07Zm-.31,4.58l.88-2.53.85,2.53h-1.73Z"/>
      <rect id="Rectangle_25" data-name="Rectangle 25" class="cls-1" x="129.16" y="41.06" width="1.35" height="6.95"/>
      <path id="Path_36" data-name="Path 36" class="cls-1" d="m124.97,44.81l-1.82-3.76h-1.33v6.95h1.36v-4.05l1.34,2.63h.92l1.33-2.63v4.05h1.36v-6.95h-1.33l-1.81,3.76Z"/>
      <rect id="Rectangle_26" data-name="Rectangle 26" class="cls-1" x="100.6" y="41.06" width="1.35" height="6.95"/>
      <rect id="Rectangle_27" data-name="Rectangle 27" class="cls-1" x="69.48" y="36.37" width="1.61" height="1.62"/>
      <rect id="Rectangle_28" data-name="Rectangle 28" class="cls-1" x="98.08" y="36.37" width="1.61" height="1.62"/>
      <rect id="Rectangle_29" data-name="Rectangle 29" class="cls-1" x="130.68" y="25.2" width="1.54" height="1.54"/>
      <rect id="Rectangle_30" data-name="Rectangle 30" class="cls-1" x="62.29" y="36.37" width="3.93" height="1.62"/>
      <rect id="Rectangle_31" data-name="Rectangle 31" class="cls-1" x="76.59" y="25.21" width="1.61" height="1.61"/>
      <path id="Path_37" data-name="Path 37" class="cls-1" d="m82.7,28.49h-7.48v-3.29h-1.62v8.02h-2.52v-4.72h-1.62c-.07,0-.89,0-.95.02-2,.04-3.6,1.69-3.56,3.7,0,0,0,0,0,0v.98l-3.91-.08h-.79c-1.31-.04-2.01-.75-2.01-2.16v-2.46h-1.63v2.54c0,2.61,1.63,3.64,3.78,3.67l6.18-.04v-2.37c0-1.32.76-2.2,1.94-2.32.07,0,.88-.01.95-.02v4.74h17.04l.03-2.82s.38-3.38-3.83-3.38m2.17,4.71h-9.65s0-3.26,0-3.26h7.31c2.57,0,2.38,1.93,2.38,1.93l-.04,1.33Z"/>
      <rect id="Rectangle_32" data-name="Rectangle 32" class="cls-1" x="137.36" y="25.2" width="1.55" height="9.47"/>
      <path id="Path_38" data-name="Path 38" class="cls-1" d="m134.22,33.25v-4.79h-3.36c-2.11,0-3.53,1.58-3.53,3.66,0,.01,0,.64,0,1.16l-1.78-.04c-1.58-.03-2.05-.74-2.05-2.05v-2.66h-1.54c-.07,0-1.07,0-1.13,0-1.9.02-3.43,1.58-3.41,3.48,0,.01,0,.02,0,.03v1.28l-4.47-.03c-1.25-.02-2.06-.86-2.06-2.2v-2.57h-1.55v2.64c0,2.1,1.58,3.52,3.65,3.52h5.97s0-2.57,0-2.57c-.1-1.11.71-2.08,1.82-2.19.01,0,.03,0,.04,0,.06,0,1.06-.01,1.12-.02v1.34c0,2.06,1.04,3.37,3.04,3.43h9.21v-1.44Zm-5.5-1.14c0-1.28.84-2.11,2.2-2.11h1.85v3.25h-4.05c0-.93,0-1.13,0-1.14"/>
      <path id="Path_39" data-name="Path 39" class="cls-1" d="m100.09,30.91c.1,1.16-.76,2.19-1.92,2.29-.09,0-.18,0-.26,0h-1.59v-4.79s-1.77-.01-3.83-.01c-2.17,0-3.83,1.48-3.83,3.68v2.58h6.02c-.08,1.24-.78,1.87-1.91,1.87h-1.77v1.45h1.75s0,0,.01,0c1.93,0,3.49-1.18,3.55-3.33h1.69c1.99.05,3.65-1.52,3.7-3.52,0-.05,0-.11,0-.16v-2.48h-1.61v2.41Zm-5.4,2.3h-4.42v-1.05c-.1-1.17.75-2.19,1.92-2.3.1,0,.2-.01.3,0h2.21v3.35Z"/>
      <path id="Path_40" data-name="Path 40" class="cls-1" d="m153.93,28.48h-3.36c-2.11,0-2.91,1.56-2.78,3.65,0,.01,0,.91,0,1.19h-3.66v-4.78h-1.56v4.77h0v1.37h-.02c-.08,1.16-.75,1.91-1.83,1.91h-3.25v1.39h3.23s0,0,0,0h.02c1.81.06,3.32-1.35,3.39-3.16,0-.05,0-.1,0-.15h6.26s0,0,0,0c2.08,0,3.52-.67,3.52-2.78l.02-3.42Zm-4.75,3.65c0-1.3.09-2.11,1.45-2.11h1.86v1.8c0,1.36-.84,1.46-2.11,1.46,0,0,0,.02,0,.03h-1.2c0-.22-.01-.45,0-1.19"/>
      <rect id="Rectangle_33" data-name="Rectangle 33" class="cls-1" x="103.76" y="28.5" width="1.62" height="6.17"/>
      <path id="Path_41" data-name="Path 41" class="cls-1" d="m111.48,27.15h-1.65v-.73c-.02-.37.27-.68.64-.7.03,0,.07,0,.1,0h.91v-.52h-.94c-.64-.02-1.17.48-1.19,1.12,0,.03,0,.07,0,.1v.73h-.62v.51h2.74v-.51Z"/>
      <path id="Path_42" data-name="Path 42" class="cls-1" d="m103.76,26.42v.73h-.61v.51h2.74v-.51h-1.65v-.73c-.02-.37.26-.68.63-.7.04,0,.07,0,.11,0h.91v-.52h-.93c-.64-.02-1.17.48-1.19,1.12,0,.03,0,.07,0,.1"/>
    </g>
  </g>
</svg>