<?xml version="1.0" encoding="UTF-8"?>
<svg id="Layer_2" data-name="Layer 2" xmlns="http://www.w3.org/2000/svg" viewBox="0 0 152 152">
  <defs>
    <style>
      .cls-1, .cls-2 {
        fill: #fff;
      }

      .cls-2 {
        stroke: #fff;
        stroke-miterlimit: 10;
        stroke-width: 2px;
      }
    </style>
  </defs>
  <g id="Layer_1-2" data-name="Layer 1">
    <g id="telegram">
      <g>
        <path class="cls-1" d="m138.7,133.33l-3.11,5.39h-6.22l-3.11-5.39,3.11-5.39h6.22l3.11,5.39Zm-6.51-2.02l-.29.66c-.05.12-.18.2-.32.18l-.72-.08c-.27-.03-.44.27-.28.49l.43.58c.08.11.08.26,0,.37l-.43.58c-.16.22.02.52.28.49l.72-.08c.13-.01.26.06.32.18l.29.66c.11.25.46.25.57,0l.29-.66c.05-.12.18-.2.32-.18l.72.08c.27.03.44-.27.28-.49l-.43-.58c-.08-.11-.08-.26,0-.37l.43-.58c.16-.22-.02-.52-.28-.49l-.72.08c-.13.01-.26-.06-.32-.18l-.29-.66c-.11-.25-.46-.25-.57,0Z"/>
        <path class="cls-1" d="m25.42,19.02l-3.03,5.39h-6.06l-3.03-5.39,3.03-5.39h6.06l3.03,5.39Zm-6.34-2.02l-.28.66c-.05.12-.18.2-.31.18l-.7-.08c-.26-.03-.43.27-.28.49l.42.58c.08.11.08.26,0,.37l-.42.58c-.16.22.02.52.28.49l.7-.08c.13-.01.26.06.31.18l.28.66c.11.25.45.25.55,0l.28-.66c.05-.12.18-.2.31-.18l.7.08c.26.03.43-.27.28-.49l-.42-.58c-.08-.11-.08-.26,0-.37l.42-.58c.16-.22-.02-.52-.28-.49l-.7.08c-.13.01-.26-.06-.31-.18l-.28-.66c-.11-.25-.45-.25-.55,0Z"/>
        <path class="cls-1" d="m138.38,18.67l-3.03,5.39h-6.06l-3.03-5.39,3.03-5.39h6.06l3.03,5.39Zm-6.34-2.02l-.28.66c-.05.12-.18.2-.31.18l-.7-.08c-.26-.03-.43.27-.28.49l.42.58c.08.11.08.26,0,.37l-.42.58c-.16.22.02.52.28.49l.7-.08c.13-.01.26.06.31.18l.28.66c.11.25.45.25.55,0l.28-.66c.05-.12.18-.2.31-.18l.7.08c.26.03.43-.27.28-.49l-.42-.58c-.08-.11-.08-.26,0-.37l.42-.58c.16-.22-.02-.52-.28-.49l-.7.08c-.13.01-.26-.06-.31-.18l-.28-.66c-.11-.25-.45-.25-.55,0Z"/>
        <path class="cls-1" d="m25.74,133.33l-3.11,5.39h-6.22l-3.11-5.39,3.11-5.39h6.22l3.11,5.39Zm-6.51-2.02l-.29.66c-.05.12-.18.2-.32.18l-.72-.08c-.27-.03-.44.27-.28.49l.43.58c.08.11.08.26,0,.37l-.43.58c-.16.22.02.52.28.49l.72-.08c.13-.01.26.06.32.18l.29.66c.11.25.46.25.57,0l.29-.66c.05-.12.18-.2.32-.18l.72.08c.27.03.44-.27.28-.49l-.43-.58c-.08-.11-.08-.26,0-.37l.43-.58c.16-.22-.02-.52-.28-.49l-.72.08c-.13.01-.26-.06-.32-.18l-.29-.66c-.11-.25-.46-.25-.57,0Z"/>
      </g>
      <path class="cls-1" d="m105.37,46.2c-.86.04-1.67.29-2.38.57h0c-.73.29-4.19,1.75-9.44,3.95-5.25,2.21-12.08,5.09-18.85,7.94-13.52,5.69-26.81,11.3-26.81,11.3l.16-.06s-.92.3-1.87.96c-.49.32-1.03.76-1.5,1.45-.47.69-.85,1.74-.71,2.83.23,1.84,1.43,2.95,2.28,3.56.87.62,1.7.91,1.7.91h.02l12.46,4.2c.56,1.8,3.8,12.44,4.58,14.9.46,1.47.91,2.38,1.47,3.08.27.36.59.66.97.9.15.09.31.16.47.22.05.03.1.04.16.05l-.13-.03s.07.04.1.05c.1.03.17.04.3.06,1.97.6,3.56-.63,3.56-.63l.09-.07,7.36-6.7,12.33,9.46.28.12c2.57,1.13,5.18.5,6.55-.61,1.39-1.12,1.92-2.54,1.92-2.54l.09-.23,9.53-48.83c.27-1.21.34-2.33.04-3.43-.3-1.1-1.07-2.12-1.99-2.67-.94-.56-1.86-.73-2.72-.69Zm-.26,5.24c-.01.16.02.14-.05.45v.03l-9.44,48.32c-.04.07-.11.22-.3.37-.2.16-.36.26-1.19-.07l-15.09-11.57-9.11,8.31,1.91-12.23s23.63-22.03,24.65-22.97c1.02-.95.68-1.15.68-1.15.07-1.16-1.54-.34-1.54-.34l-31.08,19.26v-.05s-14.91-5.02-14.91-5.02h0s-.03-.02-.04-.02c0,0,.08-.03.08-.03l.08-.04.08-.03s13.3-5.6,26.82-11.3c6.77-2.85,13.59-5.72,18.84-7.94,5.25-2.2,9.12-3.82,9.34-3.91.21-.08.11-.08.26-.08Z"/>
      <path class="cls-2" d="m140.16,1H11.84C5.86,1,1,7.83,1,16.23v119.54c0,8.4,4.86,15.23,10.84,15.23h128.32c5.98,0,10.84-6.83,10.84-15.23V16.23c0-8.4-4.86-15.23-10.84-15.23Zm10.16,134.77c0,7.89-4.55,14.28-10.16,14.28H11.84c-5.61,0-10.16-6.39-10.16-14.28V16.23C1.68,8.35,6.23,1.95,11.84,1.95h128.32c5.61,0,10.16,6.39,10.16,14.28v119.54Z"/>
    </g>
  </g>
</svg>