<?xml version="1.0" encoding="UTF-8"?>
<svg id="Layer_2" data-name="Layer 2" xmlns="http://www.w3.org/2000/svg" viewBox="0 0 152 152">
  <defs>
    <style>
      .cls-1, .cls-2 {
        fill: #fff;
      }

      .cls-2 {
        stroke: #fff;
        stroke-miterlimit: 10;
        stroke-width: 2px;
      }
    </style>
  </defs>
  <g id="Layer_1-2" data-name="Layer 1">
    <g id="tiktok">
      <g>
        <path class="cls-1" d="m138.7,133.33l-3.11,5.39h-6.22l-3.11-5.39,3.11-5.39h6.22l3.11,5.39Zm-6.51-2.02l-.29.66c-.05.12-.18.2-.32.18l-.72-.08c-.27-.03-.44.27-.28.49l.43.58c.08.11.08.26,0,.37l-.43.58c-.16.22.02.52.28.49l.72-.08c.13-.01.26.06.32.18l.29.66c.11.25.46.25.57,0l.29-.66c.05-.12.18-.2.32-.18l.72.08c.27.03.44-.27.28-.49l-.43-.58c-.08-.11-.08-.26,0-.37l.43-.58c.16-.22-.02-.52-.28-.49l-.72.08c-.13.01-.26-.06-.32-.18l-.29-.66c-.11-.25-.46-.25-.57,0Z"/>
        <path class="cls-1" d="m25.42,19.02l-3.03,5.39h-6.06l-3.03-5.39,3.03-5.39h6.06l3.03,5.39Zm-6.34-2.02l-.28.66c-.05.12-.18.2-.31.18l-.7-.08c-.26-.03-.43.27-.28.49l.42.58c.08.11.08.26,0,.37l-.42.58c-.16.22.02.52.28.49l.7-.08c.13-.01.26.06.31.18l.28.66c.11.25.45.25.55,0l.28-.66c.05-.12.18-.2.31-.18l.7.08c.26.03.43-.27.28-.49l-.42-.58c-.08-.11-.08-.26,0-.37l.42-.58c.16-.22-.02-.52-.28-.49l-.7.08c-.13.01-.26-.06-.31-.18l-.28-.66c-.11-.25-.45-.25-.55,0Z"/>
        <path class="cls-1" d="m138.38,18.67l-3.03,5.39h-6.06l-3.03-5.39,3.03-5.39h6.06l3.03,5.39Zm-6.34-2.02l-.28.66c-.05.12-.18.2-.31.18l-.7-.08c-.26-.03-.43.27-.28.49l.42.58c.08.11.08.26,0,.37l-.42.58c-.16.22.02.52.28.49l.7-.08c.13-.01.26.06.31.18l.28.66c.11.25.45.25.55,0l.28-.66c.05-.12.18-.2.31-.18l.7.08c.26.03.43-.27.28-.49l-.42-.58c-.08-.11-.08-.26,0-.37l.42-.58c.16-.22-.02-.52-.28-.49l-.7.08c-.13.01-.26-.06-.31-.18l-.28-.66c-.11-.25-.45-.25-.55,0Z"/>
        <path class="cls-1" d="m25.74,133.33l-3.11,5.39h-6.22l-3.11-5.39,3.11-5.39h6.22l3.11,5.39Zm-6.51-2.02l-.29.66c-.05.12-.18.2-.32.18l-.72-.08c-.27-.03-.44.27-.28.49l.43.58c.08.11.08.26,0,.37l-.43.58c-.16.22.02.52.28.49l.72-.08c.13-.01.26.06.32.18l.29.66c.11.25.46.25.57,0l.29-.66c.05-.12.18-.2.32-.18l.72.08c.27.03.44-.27.28-.49l-.43-.58c-.08-.11-.08-.26,0-.37l.43-.58c.16-.22-.02-.52-.28-.49l-.72.08c-.13.01-.26-.06-.32-.18l-.29-.66c-.11-.25-.46-.25-.57,0Z"/>
      </g>
      <path class="cls-1" d="m98.7,57.01c-.45-.23-.88-.49-1.31-.76-1.23-.81-2.35-1.77-3.35-2.85-2.5-2.86-3.44-5.77-3.78-7.8h.01c-.29-1.69-.17-2.78-.15-2.78h-11.4v44.07c0,.59,0,1.18-.03,1.75,0,.07,0,.14-.01.22,0,.03,0,.06,0,.1v.03c-.12,1.58-.63,3.11-1.48,4.45-.85,1.34-2.01,2.45-3.39,3.23-1.44.82-3.06,1.25-4.72,1.24-5.31,0-9.61-4.33-9.61-9.68s4.3-9.68,9.61-9.68c1.01,0,2,.16,2.96.47v-11.6c-2.89-.37-5.83-.14-8.64.68-2.81.82-5.41,2.22-7.66,4.09-1.96,1.71-3.62,3.74-4.88,6.02-.48.83-2.3,4.16-2.52,9.57-.14,3.07.78,6.25,1.22,7.57v.03c.28.77,1.35,3.42,3.09,5.64,1.41,1.79,3.07,3.36,4.94,4.66v-.03l.03.03c5.52,3.75,11.63,3.5,11.63,3.5,1.06-.04,4.61,0,8.63-1.91,4.47-2.12,7.01-5.27,7.01-5.27,1.62-1.88,2.92-4.03,3.82-6.35,1.03-2.71,1.38-5.96,1.38-7.26v-23.38c.14.08,1.98,1.3,1.98,1.3,0,0,2.65,1.7,6.79,2.81,2.97.79,6.97.95,6.97.95v-11.31c-1.4.15-4.25-.29-7.16-1.74Z"/>
      <path class="cls-2" d="m140.16,1H11.84C5.86,1,1,7.83,1,16.23v119.54c0,8.4,4.86,15.23,10.84,15.23h128.32c5.98,0,10.84-6.83,10.84-15.23V16.23c0-8.4-4.86-15.23-10.84-15.23Zm10.16,134.77c0,7.89-4.55,14.28-10.16,14.28H11.84c-5.61,0-10.16-6.39-10.16-14.28V16.23C1.68,8.35,6.23,1.95,11.84,1.95h128.32c5.61,0,10.16,6.39,10.16,14.28v119.54Z"/>
    </g>
  </g>
</svg>