<svg width="50" height="50" viewBox="0 0 50 50" fill="none" xmlns="http://www.w3.org/2000/svg">
<g clip-path="url(#clip0_195_387)">
<path d="M38.718 50.0011H11.2831C5.05145 50.0011 0 44.9485 0 38.718V11.2831C0 5.05145 5.05145 0 11.2831 0H38.718C44.9497 0 50.0011 5.05145 50.0011 11.2831V38.718C50.0011 44.9497 44.9497 50.0011 38.718 50.0011ZM26.1588 19.5807L18.9003 9.98443H8.389L20.9482 26.4093L9.04455 40.0156H14.1411L23.3301 29.5178L31.3592 40.0156H41.611L28.5181 22.7061L39.6477 9.98443H34.5534L26.1576 19.5807H26.1588ZM14.3386 12.874H17.3681L35.5903 36.9669H32.7673L14.3375 12.874H14.3386Z" fill="white"/>
</g>
<defs>
<clipPath id="clip0_195_387">
<rect width="50" height="50" fill="white"/>
</clipPath>
</defs>
</svg>
