<?xml version="1.0" encoding="UTF-8"?>
<svg id="Layer_2" data-name="Layer 2" xmlns="http://www.w3.org/2000/svg" viewBox="0 0 152 152">
  <defs>
    <style>
      .cls-1, .cls-2 {
        fill: #fff;
      }

      .cls-2 {
        stroke: #fff;
        stroke-miterlimit: 10;
        stroke-width: 2px;
      }
    </style>
  </defs>
  <g id="Layer_1-2" data-name="Layer 1">
    <g id="whatsapp">
      <g>
        <path class="cls-1" d="m138.7,133.33l-3.11,5.39h-6.22l-3.11-5.39,3.11-5.39h6.22l3.11,5.39Zm-6.51-2.02l-.29.66c-.05.12-.18.2-.32.18l-.72-.08c-.27-.03-.44.27-.28.49l.43.58c.08.11.08.26,0,.37l-.43.58c-.16.22.02.52.28.49l.72-.08c.13-.01.26.06.32.18l.29.66c.11.25.46.25.57,0l.29-.66c.05-.12.18-.2.32-.18l.72.08c.27.03.44-.27.28-.49l-.43-.58c-.08-.11-.08-.26,0-.37l.43-.58c.16-.22-.02-.52-.28-.49l-.72.08c-.13.01-.26-.06-.32-.18l-.29-.66c-.11-.25-.46-.25-.57,0Z"/>
        <path class="cls-1" d="m25.42,19.02l-3.03,5.39h-6.06l-3.03-5.39,3.03-5.39h6.06l3.03,5.39Zm-6.34-2.02l-.28.66c-.05.12-.18.2-.31.18l-.7-.08c-.26-.03-.43.27-.28.49l.42.58c.08.11.08.26,0,.37l-.42.58c-.16.22.02.52.28.49l.7-.08c.13-.01.26.06.31.18l.28.66c.11.25.45.25.55,0l.28-.66c.05-.12.18-.2.31-.18l.7.08c.26.03.43-.27.28-.49l-.42-.58c-.08-.11-.08-.26,0-.37l.42-.58c.16-.22-.02-.52-.28-.49l-.7.08c-.13.01-.26-.06-.31-.18l-.28-.66c-.11-.25-.45-.25-.55,0Z"/>
        <path class="cls-1" d="m138.38,18.67l-3.03,5.39h-6.06l-3.03-5.39,3.03-5.39h6.06l3.03,5.39Zm-6.34-2.02l-.28.66c-.05.12-.18.2-.31.18l-.7-.08c-.26-.03-.43.27-.28.49l.42.58c.08.11.08.26,0,.37l-.42.58c-.16.22.02.52.28.49l.7-.08c.13-.01.26.06.31.18l.28.66c.11.25.45.25.55,0l.28-.66c.05-.12.18-.2.31-.18l.7.08c.26.03.43-.27.28-.49l-.42-.58c-.08-.11-.08-.26,0-.37l.42-.58c.16-.22-.02-.52-.28-.49l-.7.08c-.13.01-.26-.06-.31-.18l-.28-.66c-.11-.25-.45-.25-.55,0Z"/>
        <path class="cls-1" d="m25.74,133.33l-3.11,5.39h-6.22l-3.11-5.39,3.11-5.39h6.22l3.11,5.39Zm-6.51-2.02l-.29.66c-.05.12-.18.2-.32.18l-.72-.08c-.27-.03-.44.27-.28.49l.43.58c.08.11.08.26,0,.37l-.43.58c-.16.22.02.52.28.49l.72-.08c.13-.01.26.06.32.18l.29.66c.11.25.46.25.57,0l.29-.66c.05-.12.18-.2.32-.18l.72.08c.27.03.44-.27.28-.49l-.43-.58c-.08-.11-.08-.26,0-.37l.43-.58c.16-.22-.02-.52-.28-.49l-.72.08c-.13.01-.26-.06-.32-.18l-.29-.66c-.11-.25-.46-.25-.57,0Z"/>
      </g>
      <g>
        <path class="cls-1" d="m110.26,74.32c-.44-17.47-14.84-31.5-32.55-31.5s-31.79,13.71-32.54,30.9c-.02.47-.04.95-.04,1.43,0,6.1,1.71,11.81,4.67,16.69l-5.88,17.34,18.04-5.73c4.67,2.56,10.04,4.02,15.75,4.02,17.99,0,32.57-14.47,32.57-32.32,0-.28-.01-.55-.02-.82Zm-32.56,27.99c-5.56,0-10.74-1.65-15.07-4.5l-10.52,3.34,3.42-10.09c-3.28-4.48-5.21-9.99-5.21-15.93,0-.89.05-1.77.13-2.64,1.34-13.75,13.05-24.54,27.26-24.54s26.2,11.06,27.3,25.05c.05.7.09,1.41.09,2.12,0,14.99-12.29,27.18-27.39,27.18Z"/>
        <path class="cls-1" d="m92.63,81.66c-.8-.4-4.73-2.32-5.46-2.58-.73-.26-1.27-.4-1.8.4-.53.79-2.06,2.58-2.53,3.1-.46.53-.93.6-1.73.2-.8-.39-3.37-1.23-6.42-3.93-2.37-2.1-3.98-4.69-4.44-5.49-.47-.79-.05-1.22.35-1.62.36-.35.8-.93,1.2-1.39.12-.13.21-.26.29-.38.2-.29.32-.57.51-.94.27-.53.13-.99-.07-1.39-.2-.4-1.8-4.3-2.46-5.88-.67-1.59-1.33-1.32-1.8-1.32s-1-.07-1.53-.07-1.4.2-2.13.99c-.73.79-2.79,2.71-2.79,6.61,0,.92.16,1.83.41,2.7.8,2.8,2.54,5.09,2.85,5.5.4.53,5.52,8.79,13.64,11.96,8.12,3.17,8.12,2.11,9.59,1.98,1.46-.13,4.72-1.91,5.39-3.77.66-1.85.66-3.44.46-3.77-.2-.33-.73-.53-1.53-.92Z"/>
      </g>
      <path class="cls-2" d="m140.16,1H11.84C5.86,1,1,7.83,1,16.23v119.54c0,8.4,4.86,15.23,10.84,15.23h128.32c5.98,0,10.84-6.83,10.84-15.23V16.23c0-8.4-4.86-15.23-10.84-15.23Zm10.16,134.77c0,7.89-4.55,14.28-10.16,14.28H11.84c-5.61,0-10.16-6.39-10.16-14.28V16.23C1.68,8.35,6.23,1.95,11.84,1.95h128.32c5.61,0,10.16,6.39,10.16,14.28v119.54Z"/>
    </g>
  </g>
</svg>