<svg width="50" height="50" viewBox="0 0 50 50" fill="none" xmlns="http://www.w3.org/2000/svg">
<g clip-path="url(#clip0_215_258)">
<path d="M3.55729 0H46.5C48.3889 0.489583 49.5556 1.67708 50 3.5625V46.4844C49.5139 48.3802 48.3281 49.5521 46.4427 50H3.49479C1.6059 49.5035 0.440972 48.3194 0 46.4479V3.48958C0.486111 1.60764 1.67187 0.444444 3.55729 0ZM6.78125 32.6354C7.29687 36.2969 9.16667 37.6354 12.7552 37.8698C21.9427 38.4635 30.5069 38.4167 38.4479 37.7292C41.5156 37.4687 42.8906 35.4531 43.2708 32.4896C43.8993 27.5521 43.8906 22.5451 43.2448 17.4687C42.9167 14.8906 41.849 12.875 39.2344 12.4375C37.5087 12.1493 35.5625 11.967 33.3958 11.8906C27.4167 11.6719 21.5312 11.6788 15.7396 11.9115C13.7465 11.9948 11.9861 12.2049 10.4583 12.5417C8.53819 12.9687 7.39757 14.2483 7.03646 16.3802C6.10937 21.8247 6.02431 27.2431 6.78125 32.6354Z" fill="white"/>
<path d="M21.4844 19.4374L30.8333 24.8749C30.8571 24.8886 30.8769 24.9084 30.8906 24.9321C30.9044 24.9559 30.9116 24.9829 30.9116 25.0104C30.9116 25.0378 30.9044 25.0648 30.8906 25.0886C30.8769 25.1123 30.8571 25.1321 30.8333 25.1458L21.4844 30.5833C21.4606 30.597 21.4337 30.6042 21.4062 30.6042C21.3788 30.6042 21.3518 30.597 21.3281 30.5832C21.3043 30.5695 21.2846 30.5498 21.2709 30.526C21.2572 30.5022 21.25 30.4753 21.25 30.4479V19.5729C21.25 19.5454 21.2572 19.5185 21.2709 19.4947C21.2846 19.4709 21.3043 19.4512 21.3281 19.4375C21.3518 19.4237 21.3788 19.4165 21.4062 19.4165C21.4337 19.4165 21.4606 19.4237 21.4844 19.4374Z" fill="white"/>
</g>
<defs>
<clipPath id="clip0_215_258">
<rect width="50" height="50" rx="11" fill="white"/>
</clipPath>
</defs>
</svg>
