<svg width="129" height="42" viewBox="0 0 129 42" fill="none" xmlns="http://www.w3.org/2000/svg">
<path d="M100.348 6.00391L96.4221 18.2005H99.5839L100.238 15.5369H104.054L104.709 18.2005H107.98L104.164 6.00391H100.348ZM100.784 13.488L102.201 8.05851L103.618 13.488H100.784ZM118.545 9.69756C118.545 7.13649 116.691 6.0096 113.208 6.0096H108.956V18.2061H112.009V13.488H113.208L115.825 18.2005H119.314L116.042 12.9758C117.781 12.2587 118.545 11.3367 118.545 9.69756ZM113.31 11.5416H112.002V8.05851H113.093C114.619 8.05851 115.382 8.5707 115.382 9.69756C115.382 11.0294 114.619 11.5416 113.31 11.5416ZM129 6.00391L128.673 8.25771H125.511V18.2005H122.458V8.26334H119.078V6.0096H129V6.00391Z" fill="#2D2D2D"/>
<path d="M3.71734 26.9422C3.73551 27.2894 3.21456 27.7561 2.67543 27.8756C2.26352 27.9894 1.92429 27.8756 1.87583 27.6423C1.87583 27.6423 -1.48008 24.3754 0.785463 14.353C0.967192 13.7724 1.7365 13.3057 2.48764 13.3057C3.23879 13.3057 3.75368 13.653 3.57196 14.2392C3.57196 14.2392 1.14892 21.5867 3.82638 26.6008C3.75368 26.8284 3.75368 26.8284 3.71734 26.9422ZM3.15398 12.3667C4.02627 12.3667 4.9955 11.6667 5.25597 10.8528C5.51039 10.039 4.97732 9.33889 4.10502 9.33889C3.23273 9.33889 2.29987 9.9194 2.03939 10.739C1.74862 11.6724 2.27563 12.3667 3.15398 12.3667ZM28.0688 20.6476C24.1254 30.4424 13.7002 30.2091 13.7002 30.2091C13.7002 30.2091 5.17722 30.6758 4.64415 24.3811C4.64415 24.3811 4.3655 22.8672 6.30394 21.4671C8.24236 20.0671 12.9188 17.5003 16.7957 12.7195C16.7957 12.7195 11.7679 14.0001 5.14694 18.7809C4.66232 19.128 4.3231 19.0142 4.31098 18.667C4.51694 16.8002 5.76481 12.0195 9.12072 6.89163C14.0819 -0.575413 19.5277 0.0107955 19.5277 0.0107955C19.5277 0.0107955 27.457 0.244139 20.2424 10.5056C20.3697 10.5056 32.0487 10.739 28.0688 20.6476ZM18.4555 10.6195C18.4555 10.6195 23.8285 3.03859 18.2555 3.27193C11.4287 3.50528 6.90364 15.1668 6.90364 15.1668C13.0582 11.0862 18.4555 10.6195 18.4555 10.6195ZM19.0309 12.3667C15.0148 17.6141 10.1565 19.9476 7.69718 21.8087C6.24336 22.8559 6.66739 23.9087 6.66739 23.9087C7.56997 27.4089 13.0036 27.6423 13.0036 27.6423C13.0036 27.6423 21.4479 28.2285 24.5494 21.1143C28.4626 12.6 19.0309 12.3667 19.0309 12.3667ZM122.276 24.8478C120.956 25.0811 118.721 25.4284 117.515 26.4812C117.515 26.4812 104.879 19.7199 88.0208 27.648L87.9483 27.8813C87.6937 28.6952 87.4761 29.3952 87.3303 29.8619C86.4155 32.7758 82.981 41.7568 78.9103 41.9902C74.8396 42.2235 75.0759 38.2566 76.7417 35.3427C77.3232 34.2955 78.5468 32.7758 80.2672 31.262C80.2672 31.262 80.4671 31.0286 80.9881 30.5619C82.1935 29.5147 83.6109 28.5813 85.2772 27.648C85.4408 27.5341 85.7249 27.4146 85.8885 27.3008C85.9247 27.187 86.6701 25.2007 87.3421 23.4534C87.3421 23.4534 85.3008 27.187 82.7992 27.187C80.9214 27.187 80.3459 25.4397 80.3398 23.4534C79.0436 25.2007 76.5903 28.2342 73.8401 28.2342C71.0899 28.2342 70.1389 26.4869 70.1873 23.9201C68.8547 25.7869 66.6012 28.5813 64.6022 28.5813C61.5674 28.6952 62.6517 24.0339 62.6517 24.0339C62.6517 24.0339 60.2105 28.2342 57 28.1146C55.2493 28.1146 54.8859 26.4812 54.9707 24.6145C53.747 26.1284 51.4451 28.6951 49.5673 28.6951C46.066 28.6951 47.0049 24.4949 47.0049 24.4949C47.0049 24.4949 44.9817 27.7618 41.7288 27.7618C40.1053 27.7618 39.5905 26.5951 39.6207 25.3145C38.2699 26.8284 36.0952 28.5813 33.5994 28.5813C29.3471 28.5813 28.2324 24.9673 28.7291 22.1672C29.353 19.3671 32.0426 15.1725 36.5071 15.2864C40.4688 15.4002 39.6692 20.7671 31.9215 22.7477C31.9215 22.7477 31.1824 26.7146 34.1446 26.8284C35.9861 26.9422 37.6883 25.895 39.7176 23.7949C39.8509 22.9811 40.0689 22.281 40.3719 21.6948C41.0442 19.9476 44.3153 14.7002 49.8278 15.0473C49.8278 15.0473 53.42 15.1612 52.1115 18.5475C52.1115 18.5475 51.5482 19.9476 49.9247 19.9476C48.4224 19.9476 48.901 18.4337 48.9373 18.3142C48.9373 18.3142 49.9731 18.2003 50.3184 17.5003C50.6637 16.8002 50.5971 16.2197 49.6339 16.1002C47.8288 15.8669 44.7636 18.0808 43.4855 22.1615C42.3345 26.2422 44.5032 25.3088 44.5032 25.3088C44.5032 25.3088 45.4542 25.0754 47.5198 22.8615C47.5198 22.8615 47.956 21.4614 48.0287 21.2282C48.1013 20.9948 48.4588 20.6476 49.428 20.7614C50.3911 20.8752 50.6576 21.2282 50.5486 21.5753C50.4032 22.042 48.4769 26.5894 50.1185 26.9365C51.6693 27.1699 54.0135 24.4892 55.1463 22.8559C55.3523 21.8087 55.5159 20.8752 55.6612 20.4086C56.0489 18.7752 56.7637 16.0945 57.0847 15.8612C57.4058 15.6278 57.6057 15.3945 58.4417 15.514C59.2776 15.6278 60.6708 15.9807 60.2892 16.7945C59.9076 17.6085 56.1216 26.1226 57.8844 26.4699C59.4351 26.7032 62.0641 23.903 62.7305 22.9697C62.7305 22.9697 63.2333 20.1695 63.9904 18.5418C64.7537 16.9084 65.1474 16.4417 65.8622 16.5612C66.577 16.675 67.734 17.3751 67.9097 17.6085C68.1217 17.7222 68.3882 18.0751 67.5947 19.0085C66.9647 19.8224 65.9834 22.1558 65.2928 24.3697C64.6022 26.5837 64.9172 27.1699 65.42 27.1699C65.9228 27.1699 66.7042 27.0561 70.3448 22.6225C70.4781 21.8087 70.6416 20.8752 70.9324 19.9419C71.7744 17.2612 72.6467 14.4611 73.4645 12.2472C72.5134 12.4805 71.8168 12.7139 70.8355 13.061C69.5634 13.5278 70.0541 12.361 71.2716 11.661C71.8835 11.3138 72.8648 10.9609 73.9734 10.6138C74.2641 9.68041 74.5185 8.86655 74.6276 8.51363C75.1001 6.99976 74.7851 6.41356 76.6932 6.29973C78.6074 6.1859 79.2253 6.99977 78.5529 8.74698C78.5165 8.86085 78.4438 9.09421 78.2076 9.44705C80.4247 8.74698 82.3449 7.81362 82.6297 7.6998C82.9143 7.58597 83.617 7.35263 82.6902 9.09983C81.7695 10.8471 80.57 11.0805 78.7831 11.2C78.2803 11.2 77.7472 11.3138 77.3717 11.3138C75.1788 16.3279 71.3928 26.8227 74.4277 26.7032C76.5539 26.7032 79.4131 23.5559 80.2854 21.5753C80.3762 20.8752 80.4731 20.1752 80.6548 19.5947C81.1698 17.1475 81.2485 16.0945 81.2364 15.7474C81.2182 15.4002 81.3697 14.9335 82.4903 14.9335C83.617 14.9335 85.1313 15.2807 84.7797 16.8002C84.429 18.3142 81.4908 25.3145 83.29 25.5478C84.7199 25.7812 86.622 23.6811 88.0756 20.6533C88.0756 20.6533 88.6996 17.8532 89.2442 16.9198C89.7897 15.9864 90.5891 16.2197 90.7164 16.2197C90.9651 16.2197 92.643 16.4531 92.0671 17.5003C91.6008 18.2003 90.0317 22.3949 88.8142 25.895C96.1261 22.5144 107.793 19.6004 123.246 24.1478C123.125 24.1478 123.604 24.6145 122.276 24.8478ZM31.9033 21.581C31.9033 21.581 33.7449 20.8809 35.1139 19.7142C36.8039 18.3142 37.3128 16.6807 36.5495 16.3336C35.9983 16.1002 34.7626 16.4474 33.5752 17.8474C32.5091 19.2475 31.9033 21.581 31.9033 21.581ZM85.1676 29.1618C85.1676 29.1618 80.2551 32.0758 78.8376 35.8093C77.5292 39.19 78.2863 40.3567 79.1284 40.4705C79.9643 40.5844 81.2788 39.19 82.7872 35.576C84.2955 31.9563 85.1676 29.1618 85.1676 29.1618Z" fill="#6D3DCC"/>
</svg>
